# Blender v2.79 (sub 0) OBJ File: 'Cubes3Detris.blend'
# www.blender.org
mtllib Frame3detris.mtl
o CubeFrame_Cube.008
v -0.527303 -0.542987 0.004954
v -0.528771 -0.535487 0.006652
v -0.528771 -0.542987 -0.000848
v -0.528771 -0.535487 -0.000848
v -0.521271 -0.542987 0.006652
v -0.521271 -0.535487 0.006652
v -0.521271 -0.542987 -0.000848
v -0.521271 -0.535487 -0.000848
v -0.528771 -0.542987 0.002902
v -0.528771 -0.539237 0.006652
v -0.531063 -0.534029 0.003319
v -0.531063 -0.539654 -0.000593
v -0.525438 -0.545279 -0.000259
v -0.525438 -0.534029 -0.002306
v -0.519813 -0.539654 -0.002306
v -0.521269 -0.545279 0.003319
v -0.519813 -0.534029 0.003319
v -0.521252 -0.539654 0.008944
v -0.525021 -0.542987 0.006652
v -0.525438 -0.534029 0.008944
v -0.521271 0.001205 -0.000848
v -0.525021 -0.545279 0.002902
v -0.525021 -0.539237 0.008944
v 0.001798 -0.535487 -0.000848
v -0.531063 -0.539237 0.002902
v 0.001798 -0.542987 -0.000848
v 0.001798 -0.539654 0.008944
v 0.001798 -0.534029 0.003319
v 0.001798 -0.545279 0.003319
v 0.001798 -0.539654 -0.002306
v 0.001798 -0.535487 0.006652
v 0.001798 -0.542987 0.006652
v -0.521271 0.001205 0.006652
v -0.525438 0.001205 0.008944
v -0.519813 0.001205 0.003319
v -0.528771 0.001205 -0.000848
v -0.525438 0.001205 -0.002306
v -0.531063 0.001205 0.003319
v -0.528771 0.001205 0.006652
v -0.516126 -0.535487 -0.000848
v -0.516126 -0.542987 -0.000848
v -0.516126 -0.534029 0.003319
v -0.516126 -0.539654 0.008944
v -0.516126 -0.542987 0.006652
v -0.516126 -0.535487 0.006652
v -0.516126 -0.539654 -0.002306
v -0.516126 -0.545279 0.003319
v -0.521271 -0.530070 -0.000848
v -0.525438 -0.530070 -0.002306
v -0.525438 -0.530070 0.008944
v -0.528771 -0.530070 -0.000848
v -0.528771 -0.530070 0.006652
v -0.531063 -0.530070 0.003319
v -0.521271 -0.530070 0.006652
v -0.519813 -0.530070 0.003319
v 0.527303 -0.542987 0.004954
v 0.528771 -0.535487 0.006652
v 0.528771 -0.542987 -0.000848
v 0.528771 -0.535487 -0.000848
v 0.521271 -0.542987 0.006652
v 0.521271 -0.535487 0.006652
v 0.521271 -0.542987 -0.000848
v 0.521271 -0.535487 -0.000848
v 0.528771 -0.542987 0.002902
v 0.528771 -0.539237 0.006652
v 0.531063 -0.534029 0.003319
v 0.531063 -0.539654 -0.000593
v 0.525438 -0.545279 -0.000259
v 0.525438 -0.534029 -0.002306
v 0.519813 -0.539654 -0.002306
v 0.521269 -0.545279 0.003319
v 0.519813 -0.534029 0.003319
v 0.521252 -0.539654 0.008944
v 0.525021 -0.542987 0.006652
v 0.525438 -0.534029 0.008944
v 0.521271 0.001205 -0.000848
v 0.525021 -0.545279 0.002902
v 0.525021 -0.539237 0.008944
v -0.001798 -0.535487 -0.000848
v 0.531063 -0.539237 0.002902
v -0.001798 -0.542987 -0.000848
v -0.001798 -0.539654 0.008944
v -0.001798 -0.534029 0.003319
v -0.001798 -0.545279 0.003319
v -0.001798 -0.539654 -0.002306
v -0.001798 -0.535487 0.006652
v -0.001798 -0.542987 0.006652
v 0.521271 0.001205 0.006652
v 0.525438 0.001205 0.008944
v 0.519813 0.001205 0.003319
v 0.528771 0.001205 -0.000848
v 0.525438 0.001205 -0.002306
v 0.531063 0.001205 0.003319
v 0.528771 0.001205 0.006652
v 0.516126 -0.535487 -0.000848
v 0.516126 -0.542987 -0.000848
v 0.516126 -0.534029 0.003319
v 0.516126 -0.539654 0.008944
v 0.516126 -0.542987 0.006652
v 0.516126 -0.535487 0.006652
v 0.516126 -0.539654 -0.002306
v 0.516126 -0.545279 0.003319
v 0.521271 -0.530070 -0.000848
v 0.525438 -0.530070 -0.002306
v 0.525438 -0.530070 0.008944
v 0.528771 -0.530070 -0.000848
v 0.528771 -0.530070 0.006652
v 0.531063 -0.530070 0.003319
v 0.521271 -0.530070 0.006652
v 0.519813 -0.530070 0.003319
v -0.527303 0.542987 0.004954
v -0.528771 0.535487 0.006652
v -0.528771 0.542987 -0.000848
v -0.528771 0.535487 -0.000848
v -0.521271 0.542987 0.006652
v -0.521271 0.535487 0.006652
v -0.521271 0.542987 -0.000848
v -0.521271 0.535487 -0.000848
v -0.528771 0.542987 0.002902
v -0.528771 0.539237 0.006652
v -0.531063 0.534029 0.003319
v -0.531063 0.539654 -0.000593
v -0.525438 0.545279 -0.000259
v -0.525438 0.534029 -0.002306
v -0.519813 0.539654 -0.002306
v -0.521269 0.545279 0.003319
v -0.519813 0.534029 0.003319
v -0.521252 0.539654 0.008944
v -0.525021 0.542987 0.006652
v -0.525438 0.534029 0.008944
v -0.521271 -0.001205 -0.000848
v -0.525021 0.545279 0.002902
v -0.525021 0.539237 0.008944
v 0.001798 0.535487 -0.000848
v -0.531063 0.539237 0.002902
v 0.001798 0.542987 -0.000848
v 0.001798 0.539654 0.008944
v 0.001798 0.534029 0.003319
v 0.001798 0.545279 0.003319
v 0.001798 0.539654 -0.002306
v 0.001798 0.535487 0.006652
v 0.001798 0.542987 0.006652
v -0.521271 -0.001205 0.006652
v -0.525438 -0.001205 0.008944
v -0.519813 -0.001205 0.003319
v -0.528771 -0.001205 -0.000848
v -0.525438 -0.001205 -0.002306
v -0.531063 -0.001205 0.003319
v -0.528771 -0.001205 0.006652
v -0.516126 0.535487 -0.000848
v -0.516126 0.542987 -0.000848
v -0.516126 0.534029 0.003319
v -0.516126 0.539654 0.008944
v -0.516126 0.542987 0.006652
v -0.516126 0.535487 0.006652
v -0.516126 0.539654 -0.002306
v -0.516126 0.545279 0.003319
v -0.521271 0.530070 -0.000848
v -0.525438 0.530070 -0.002306
v -0.525438 0.530070 0.008944
v -0.528771 0.530070 -0.000848
v -0.528771 0.530070 0.006652
v -0.531063 0.530070 0.003319
v -0.521271 0.530070 0.006652
v -0.519813 0.530070 0.003319
v 0.527303 0.542987 0.004954
v 0.528771 0.535487 0.006652
v 0.528771 0.542987 -0.000848
v 0.528771 0.535487 -0.000848
v 0.521271 0.542987 0.006652
v 0.521271 0.535487 0.006652
v 0.521271 0.542987 -0.000848
v 0.521271 0.535487 -0.000848
v 0.528771 0.542987 0.002902
v 0.528771 0.539237 0.006652
v 0.531063 0.534029 0.003319
v 0.531063 0.539654 -0.000593
v 0.525438 0.545279 -0.000259
v 0.525438 0.534029 -0.002306
v 0.519813 0.539654 -0.002306
v 0.521269 0.545279 0.003319
v 0.519813 0.534029 0.003319
v 0.521252 0.539654 0.008944
v 0.525021 0.542987 0.006652
v 0.525438 0.534029 0.008944
v 0.521271 -0.001205 -0.000848
v 0.525021 0.545279 0.002902
v 0.525021 0.539237 0.008944
v -0.001798 0.535487 -0.000848
v 0.531063 0.539237 0.002902
v -0.001798 0.542987 -0.000848
v -0.001798 0.539654 0.008944
v -0.001798 0.534029 0.003319
v -0.001798 0.545279 0.003319
v -0.001798 0.539654 -0.002306
v -0.001798 0.535487 0.006652
v -0.001798 0.542987 0.006652
v 0.521271 -0.001205 0.006652
v 0.525438 -0.001205 0.008944
v 0.519813 -0.001205 0.003319
v 0.528771 -0.001205 -0.000848
v 0.525438 -0.001205 -0.002306
v 0.531063 -0.001205 0.003319
v 0.528771 -0.001205 0.006652
v 0.516126 0.535487 -0.000848
v 0.516126 0.542987 -0.000848
v 0.516126 0.534029 0.003319
v 0.516126 0.539654 0.008944
v 0.516126 0.542987 0.006652
v 0.516126 0.535487 0.006652
v 0.516126 0.539654 -0.002306
v 0.516126 0.545279 0.003319
v 0.521271 0.530070 -0.000848
v 0.525438 0.530070 -0.002306
v 0.525438 0.530070 0.008944
v 0.528771 0.530070 -0.000848
v 0.528771 0.530070 0.006652
v 0.531063 0.530070 0.003319
v 0.521271 0.530070 0.006652
v 0.519813 0.530070 0.003319
vn -0.9651 -0.1997 0.1696
vn -0.9950 0.0449 0.0892
vn -0.5491 -0.0060 -0.8357
vn -0.7707 -0.1488 -0.6195
vn 0.0000 -0.0378 -0.9993
vn 0.0000 -0.7071 -0.7071
vn -0.1743 -0.1990 0.9644
vn -0.0911 0.0469 0.9947
vn -0.7070 -0.0156 0.7070
vn -0.6835 -0.2561 0.6836
vn -0.1729 -0.9718 0.1603
vn 0.0607 -0.9923 0.1081
vn -0.0154 -0.7070 0.7070
vn -0.2504 -0.6780 0.6911
vn -0.6744 0.0000 -0.7383
vn -0.9987 0.0000 0.0497
vn -0.0497 0.0000 0.9987
vn -0.6744 0.0000 0.7383
vn -0.7071 0.0000 -0.7071
vn -0.0378 0.0000 -0.9993
vn -0.7071 0.0000 0.7071
vn -0.6927 -0.6765 0.2498
vn -0.5420 -0.6479 0.5351
vn -0.5221 -0.5369 -0.6626
vn -0.1377 -0.8193 -0.5565
vn -0.0132 -0.5530 -0.8330
vn 0.0771 -0.1245 0.9892
vn 0.0134 0.0165 0.9998
vn 0.0000 -0.7071 0.7071
vn 0.0000 -0.9987 0.0497
vn 0.0000 -0.6744 0.7383
vn 0.0000 -0.0497 0.9987
vn 0.0000 -0.6744 -0.7383
vn 0.0000 -0.9993 -0.0378
vn -0.9993 0.0000 -0.0378
vn -0.7057 -0.7057 -0.0624
vn -0.2690 -0.2691 -0.9248
vn -0.2840 -0.0298 -0.9583
vn -0.0298 -0.2840 -0.9583
vn 0.9651 -0.1997 0.1696
vn 0.7707 -0.1488 -0.6195
vn 0.5491 -0.0060 -0.8357
vn 0.9950 0.0449 0.0892
vn 0.1743 -0.1990 0.9644
vn 0.6835 -0.2561 0.6836
vn 0.7070 -0.0156 0.7070
vn 0.0911 0.0469 0.9947
vn 0.1729 -0.9718 0.1603
vn 0.2504 -0.6780 0.6911
vn 0.0154 -0.7070 0.7070
vn -0.0607 -0.9923 0.1081
vn 0.6744 0.0000 -0.7383
vn 0.9987 0.0000 0.0497
vn 0.0497 0.0000 0.9987
vn 0.6744 0.0000 0.7383
vn 0.7071 0.0000 -0.7071
vn 0.0378 0.0000 -0.9993
vn 0.7071 0.0000 0.7071
vn 0.6927 -0.6765 0.2498
vn 0.5420 -0.6479 0.5351
vn 0.5221 -0.5369 -0.6626
vn 0.1377 -0.8193 -0.5565
vn 0.0132 -0.5530 -0.8330
vn -0.0771 -0.1245 0.9892
vn -0.0134 0.0165 0.9998
vn 0.9993 0.0000 -0.0378
vn 0.7057 -0.7057 -0.0624
vn 0.2690 -0.2691 -0.9248
vn 0.2840 -0.0298 -0.9583
vn 0.0298 -0.2840 -0.9583
vn -0.9651 0.1997 0.1696
vn -0.7707 0.1488 -0.6195
vn -0.5491 0.0060 -0.8357
vn -0.9950 -0.0449 0.0892
vn 0.0000 0.0378 -0.9993
vn 0.0000 0.7071 -0.7071
vn -0.1743 0.1990 0.9644
vn -0.6835 0.2561 0.6836
vn -0.7070 0.0156 0.7070
vn -0.0911 -0.0469 0.9947
vn -0.1729 0.9718 0.1603
vn -0.2504 0.6780 0.6911
vn -0.0154 0.7070 0.7070
vn 0.0607 0.9923 0.1081
vn -0.6927 0.6765 0.2498
vn -0.5420 0.6479 0.5351
vn -0.5221 0.5369 -0.6626
vn -0.1377 0.8193 -0.5565
vn -0.0132 0.5530 -0.8330
vn 0.0771 0.1245 0.9892
vn 0.0134 -0.0165 0.9998
vn 0.0000 0.7071 0.7071
vn 0.0000 0.9987 0.0497
vn 0.0000 0.6744 0.7383
vn 0.0000 0.0497 0.9987
vn 0.0000 0.6744 -0.7383
vn 0.0000 0.9993 -0.0378
vn -0.7057 0.7057 -0.0624
vn -0.2690 0.2691 -0.9248
vn -0.2840 0.0298 -0.9583
vn -0.0298 0.2840 -0.9583
vn 0.9651 0.1997 0.1696
vn 0.9950 -0.0449 0.0892
vn 0.5491 0.0060 -0.8357
vn 0.7707 0.1488 -0.6195
vn 0.1743 0.1990 0.9644
vn 0.0911 -0.0469 0.9947
vn 0.7070 0.0156 0.7070
vn 0.6835 0.2561 0.6836
vn 0.1729 0.9718 0.1603
vn -0.0607 0.9923 0.1081
vn 0.0154 0.7070 0.7070
vn 0.2504 0.6780 0.6911
vn 0.6927 0.6765 0.2498
vn 0.5420 0.6479 0.5351
vn 0.5221 0.5369 -0.6626
vn 0.1377 0.8193 -0.5565
vn 0.0132 0.5530 -0.8330
vn -0.0771 0.1245 0.9892
vn -0.0134 -0.0165 0.9998
vn 0.7057 0.7057 -0.0624
vn 0.2690 0.2691 -0.9248
vn 0.2840 0.0298 -0.9583
vn 0.0298 0.2840 -0.9583
usemtl None
s 1
f 25//1 11//2 4//3 12//4
f 46//5 40//6 24//6 30//5
f 23//7 20//8 2//9 10//10
f 22//11 16//12 5//13 19//14
f 51//15 53//16 38//16 36//15
f 50//17 54//18 33//18 34//17
f 48//19 49//20 37//20 21//19
f 53//16 52//21 39//21 38//16
f 9//22 22//11 19//14 1//23
f 3//24 13//25 22//11 9//22
f 13//25 7//26 16//12 22//11
f 19//14 23//7 10//10 1//23
f 5//13 18//27 23//7 19//14
f 18//27 6//28 20//8 23//7
f 44//29 47//30 29//30 32//29
f 45//31 43//32 27//32 31//31
f 41//33 46//5 30//5 26//33
f 9//22 25//1 12//4 3//24
f 1//23 10//10 25//1 9//22
f 10//10 2//9 11//2 25//1
f 42//34 40//6 24//6 28//34
f 45//31 42//34 28//34 31//31
f 43//32 44//29 32//29 27//32
f 47//30 41//33 26//33 29//30
f 49//20 51//15 36//15 37//20
f 52//21 50//17 34//17 39//21
f 48//19 55//35 35//35 21//19
f 55//35 54//18 33//18 35//35
f 16//12 7//26 41//33 47//30
f 18//27 5//13 44//29 43//32
f 6//28 17//36 42//34 45//31
f 17//36 8//37 40//6 42//34
f 7//26 15//38 46//5 41//33
f 6//28 18//27 43//32 45//31
f 5//13 16//12 47//30 44//29
f 15//38 8//37 40//6 46//5
f 13//25 3//24 7//26
f 8//37 7//26 3//24
f 12//4 4//3 3//24
f 15//38 7//26 8//37
f 3//24 4//3 8//37
f 14//39 8//37 4//3
f 17//36 6//28 54//18 55//35
f 8//37 17//36 55//35 48//19
f 2//9 20//8 50//17 52//21
f 14//39 4//3 51//15 49//20
f 11//2 2//9 52//21 53//16
f 8//37 14//39 49//20 48//19
f 20//8 6//28 54//18 50//17
f 4//3 11//2 53//16 51//15
f 80//40 67//41 59//42 66//43
f 101//5 85//5 79//6 95//6
f 78//44 65//45 57//46 75//47
f 77//48 74//49 60//50 71//51
f 106//52 91//52 93//53 108//53
f 105//54 89//54 88//55 109//55
f 103//56 76//56 92//57 104//57
f 108//53 93//53 94//58 107//58
f 64//59 56//60 74//49 77//48
f 58//61 64//59 77//48 68//62
f 68//62 77//48 71//51 62//63
f 74//49 56//60 65//45 78//44
f 60//50 74//49 78//44 73//64
f 73//64 78//44 75//47 61//65
f 99//29 87//29 84//30 102//30
f 100//31 86//31 82//32 98//32
f 96//33 81//33 85//5 101//5
f 64//59 58//61 67//41 80//40
f 56//60 64//59 80//40 65//45
f 65//45 80//40 66//43 57//46
f 97//34 83//34 79//6 95//6
f 100//31 86//31 83//34 97//34
f 98//32 82//32 87//29 99//29
f 102//30 84//30 81//33 96//33
f 104//57 92//57 91//52 106//52
f 107//58 94//58 89//54 105//54
f 103//56 76//56 90//66 110//66
f 110//66 90//66 88//55 109//55
f 71//51 102//30 96//33 62//63
f 73//64 98//32 99//29 60//50
f 61//65 100//31 97//34 72//67
f 72//67 97//34 95//6 63//68
f 62//63 96//33 101//5 70//69
f 61//65 100//31 98//32 73//64
f 60//50 99//29 102//30 71//51
f 70//69 101//5 95//6 63//68
f 68//62 62//63 58//61
f 63//68 58//61 62//63
f 67//41 58//61 59//42
f 70//69 63//68 62//63
f 58//61 63//68 59//42
f 69//70 59//42 63//68
f 72//67 110//66 109//55 61//65
f 63//68 103//56 110//66 72//67
f 57//46 107//58 105//54 75//47
f 69//70 104//57 106//52 59//42
f 66//43 108//53 107//58 57//46
f 63//68 103//56 104//57 69//70
f 75//47 105//54 109//55 61//65
f 59//42 106//52 108//53 66//43
f 135//71 122//72 114//73 121//74
f 156//75 140//75 134//76 150//76
f 133//77 120//78 112//79 130//80
f 132//81 129//82 115//83 126//84
f 161//15 146//15 148//16 163//16
f 160//17 144//17 143//18 164//18
f 158//19 131//19 147//20 159//20
f 163//16 148//16 149//21 162//21
f 119//85 111//86 129//82 132//81
f 113//87 119//85 132//81 123//88
f 123//88 132//81 126//84 117//89
f 129//82 111//86 120//78 133//77
f 115//83 129//82 133//77 128//90
f 128//90 133//77 130//80 116//91
f 154//92 142//92 139//93 157//93
f 155//94 141//94 137//95 153//95
f 151//96 136//96 140//75 156//75
f 119//85 113//87 122//72 135//71
f 111//86 119//85 135//71 120//78
f 120//78 135//71 121//74 112//79
f 152//97 138//97 134//76 150//76
f 155//94 141//94 138//97 152//97
f 153//95 137//95 142//92 154//92
f 157//93 139//93 136//96 151//96
f 159//20 147//20 146//15 161//15
f 162//21 149//21 144//17 160//17
f 158//19 131//19 145//35 165//35
f 165//35 145//35 143//18 164//18
f 126//84 157//93 151//96 117//89
f 128//90 153//95 154//92 115//83
f 116//91 155//94 152//97 127//98
f 127//98 152//97 150//76 118//99
f 117//89 151//96 156//75 125//100
f 116//91 155//94 153//95 128//90
f 115//83 154//92 157//93 126//84
f 125//100 156//75 150//76 118//99
f 123//88 117//89 113//87
f 118//99 113//87 117//89
f 122//72 113//87 114//73
f 125//100 118//99 117//89
f 113//87 118//99 114//73
f 124//101 114//73 118//99
f 127//98 165//35 164//18 116//91
f 118//99 158//19 165//35 127//98
f 112//79 162//21 160//17 130//80
f 124//101 159//20 161//15 114//73
f 121//74 163//16 162//21 112//79
f 118//99 158//19 159//20 124//101
f 130//80 160//17 164//18 116//91
f 114//73 161//15 163//16 121//74
f 190//102 176//103 169//104 177//105
f 211//75 205//76 189//76 195//75
f 188//106 185//107 167//108 175//109
f 187//110 181//111 170//112 184//113
f 216//52 218//53 203//53 201//52
f 215//54 219//55 198//55 199//54
f 213//56 214//57 202//57 186//56
f 218//53 217//58 204//58 203//53
f 174//114 187//110 184//113 166//115
f 168//116 178//117 187//110 174//114
f 178//117 172//118 181//111 187//110
f 184//113 188//106 175//109 166//115
f 170//112 183//119 188//106 184//113
f 183//119 171//120 185//107 188//106
f 209//92 212//93 194//93 197//92
f 210//94 208//95 192//95 196//94
f 206//96 211//75 195//75 191//96
f 174//114 190//102 177//105 168//116
f 166//115 175//109 190//102 174//114
f 175//109 167//108 176//103 190//102
f 207//97 205//76 189//76 193//97
f 210//94 207//97 193//97 196//94
f 208//95 209//92 197//92 192//95
f 212//93 206//96 191//96 194//93
f 214//57 216//52 201//52 202//57
f 217//58 215//54 199//54 204//58
f 213//56 220//66 200//66 186//56
f 220//66 219//55 198//55 200//66
f 181//111 172//118 206//96 212//93
f 183//119 170//112 209//92 208//95
f 171//120 182//121 207//97 210//94
f 182//121 173//122 205//76 207//97
f 172//118 180//123 211//75 206//96
f 171//120 183//119 208//95 210//94
f 170//112 181//111 212//93 209//92
f 180//123 173//122 205//76 211//75
f 178//117 168//116 172//118
f 173//122 172//118 168//116
f 177//105 169//104 168//116
f 180//123 172//118 173//122
f 168//116 169//104 173//122
f 179//124 173//122 169//104
f 182//121 171//120 219//55 220//66
f 173//122 182//121 220//66 213//56
f 167//108 185//107 215//54 217//58
f 179//124 169//104 216//52 214//57
f 176//103 167//108 217//58 218//53
f 173//122 179//124 214//57 213//56
f 185//107 171//120 219//55 215//54
f 169//104 176//103 218//53 216//52
